PathFileType	4	(X/Y/Z)	P:\Projects\LMB_grand_challenge_database\project_only\opensim\experimental_data\SixthCompetition/DM_ngait_og3_new.trc
DataRate	CameraRate	NumFrames	NumMarkers	Units	OrigDataRate	OrigDataStartFrame	OrigNumFrames
120	120	4	68	mm	120	75	302
Frame#	Time	Sternum			Neck			R_Shoulder			L_Shoulder			Xiphoid			Thoracic			R_Asis			L_Asis			R_Psis			L_Psis			Lumbar			R_Elbow			R_ElbowMedial			R_ShoulderAnterior			R_ShoulderPosterior			R_Wrist			R_Radius			R_Ulna			L_Elbow			L_ElbowMedial			L_ShoulderAnterior			L_ShoulderPosterior			L_Wrist			L_Ulna			L_Radius			L_Thigh_Superior			L_Thigh_Inferior			L_Thigh_Lateral			L_Knee_Lateral			L_Knee_Medial			L_Patella			L_Shank_Superior			L_Shank_Inferior			L_Shank_Lateral			L_Ankle_Lateral			L_Ankle_Medial			R_Thigh_Superior			R_Thigh_Inferior			R_Thigh_Lateral			R_Knee_Lateral			R_Knee_Medial			R_Patella			R_Shank_Superior			R_Shank_Inferior			R_Shank_Lateral			R_Ankle_Lateral			RankleMedial			R_Heel			R_Toe			R_Midfoot_Medial			R_Midfoot_Lateral			R_Hindfoot			R_Midfoot_Superior			R_ToeMedial			R_ToeLateral			L_Heel			L_Toe			L_Midfoot_Medial			L_Midfoot_Lateral			L_Hindfoot			L_Midfoot_Superior			L_ToeMedial			L_ToeLateral			Oglobal			Sacral			Xglobal			Yglobal			Zglobal			
		X1	Y1	Z1	X2	Y2	Z2	X3	Y3	Z3	X4	Y4	Z4	X5	Y5	Z5	X6	Y6	Z6	X7	Y7	Z7	X8	Y8	Z8	X9	Y9	Z9	X10	Y10	Z10	X11	Y11	Z11	X12	Y12	Z12	X13	Y13	Z13	X14	Y14	Z14	X15	Y15	Z15	X16	Y16	Z16	X17	Y17	Z17	X18	Y18	Z18	X19	Y19	Z19	X20	Y20	Z20	X21	Y21	Z21	X22	Y22	Z22	X23	Y23	Z23	X24	Y24	Z24	X25	Y25	Z25	X26	Y26	Z26	X27	Y27	Z27	X28	Y28	Z28	X29	Y29	Z29	X30	Y30	Z30	X31	Y31	Z31	X32	Y32	Z32	X33	Y33	Z33	X34	Y34	Z34	X35	Y35	Z35	X36	Y36	Z36	X37	Y37	Z37	X38	Y38	Z38	X39	Y39	Z39	X40	Y40	Z40	X41	Y41	Z41	X42	Y42	Z42	X43	Y43	Z43	X44	Y44	Z44	X45	Y45	Z45	X46	Y46	Z46	X47	Y47	Z47	X48	Y48	Z48	X49	Y49	Z49	X50	Y50	Z50	X51	Y51	Z51	X52	Y52	Z52	X53	Y53	Z53	X54	Y54	Z54	X55	Y55	Z55	X56	Y56	Z56	X57	Y57	Z57	X58	Y58	Z58	X59	Y59	Z59	X60	Y60	Z60	X61	Y61	Z61	X62	Y62	Z62	X63	Y63	Z63	X64	Y64	Z64	X65	Y65	Z65	X66	Y66	Z66	X67	Y67	Z67	X68	Y68	Z68	

76	2.825	-361.782	1468.58	293.858	-202.603	1384.11	274.941	-254.422	1403.12	450.835	-303.933	1442.31	112.125	-190.431	1217.59	267.831	-456.957	1285.44	272.238	-282.914	989.1130000000001	390.099	-269.837	997.977	112.293	-479.051	1038.44	274.645	-475.773	1039.14	196.445	-474.639	1088.36	239.019	-274.635	1081.1	528.139	-0	0	0	-0	0	0	-0	0	0	-177.36	818.974	490.461	-174.52	834.53	447.657	-224.265	820.058	499.784	-309.428	1113.86	-12.4797	-0	0	0	-0	0	0	-0	0	0	-225.911	858.341	4.12336	-263.178	865.651	-26.1586	-248.291	868.785	46.6202	-310.214	827.9829999999999	65.0043	-234.283	615.178	72.5782	-206.398	711.292	101.182	-0	0	0	-0	0	0	-186.105	510.538	114.322	-287.318	472.417	63.4312	-460.156	265.882	68.1708	-344.622	341.17	133.598	-0	0	0	-0	0	0	-362.342	804.99	399.582	-332.712	593.562	357.651	-271.478	721.63	382.997	-0	0	0	-0	0	0	-248.37	514.737	287.86	-368.063	397.132	361.77	-369.257	188.904	338.386	-300.646	315.888	276.67	-0	0	0	-0	0	0	-451.061	61.229	277.675	-151.901	57.3915	280.506	-227.964	34.2656	229.542	-240.876	28.5885	345.962	-350.69	27.2019	330.98	-287.564	120.179	285.575	-185.461	44.1949	237.035	-192.051	42.1168	328.475	-586.244	203.387	126.119	-334.444	42.3307	106.061	-410.994	65.1794	162.912	-429.187	70.7801	50.0238	-521.953	121.277	64.3943	-414.483	166.215	108.98	-375.526	44.5408	150.262	-379.369	46.2042	55.7457	-0	0	0	-477.412	1038.79	235.545	-200	0	0	-0	0	200	-0	200	0	
77	2.833333	-353.701	1468.84	295.195	-194.901	1384.14	275.635	-245.718	1403.38	451.615	-296.88	1442.54	113.166	-183.027	1217.34	268.205	-449.259	1285.81	273.803	-275.28	989.0549999999999	390.818	-263.122	997.99	112.795	-471.651	1039	276.026	-468.619	1039.67	197.765	-467.238	1088.9	240.343	-263.482	1081.09	528.687	-0	0	0	-0	0	0	-0	0	0	-164.494	820.021	488.849	-162.878	835.261	446.053	-211.537	820.831	499.394	-307.241	1115.07	-12.743	-0	0	0	-0	0	0	-0	0	0	-228.032	857.9640000000001	0.471339	-265.836	866.022	-29.1288	-249.873	868.374	43.3966	-302.463	828.974	65.67140000000001	-223.702	617.237	73.9096	-196.532	713.442	102.676	-0	0	0	-0	0	0	-173.749	513.201	115.575	-273.485	472.788	64.6673	-439.726	260.409	68.8293	-327.247	339.862	134.798	-0	0	0	-0	0	0	-354.407	805.002	399.416	-329.999	594.255	358.382	-265.486	720.972	382.699	-0	0	0	-0	0	0	-245.394	514.001	288.081	-365.636	397.303	361.803	-368.352	188.952	338.521	-299.209	315.803	276.766	-0	0	0	-0	0	0	-450.983	61.2103	277.695	-151.525	57.0284	280.161	-227.919	33.8692	229.623	-240.87	28.2281	346.04	-350.766	27.106	330.948	-287.326	119.912	285.633	-185.49	44.029	236.943	-191.99	41.9922	328.358	-564.068	193.831	126.409	-307.424	41.1825	107.823	-383.89	62.8273	165.673	-402.27	65.6437	52.711	-496.071	112.962	66.211	-391.186	162.662	109.871	-347.955	42.3726	151.3	-351.832	43.8733	57.0284	-0	0	0	-470.135	1039.33	236.895	-200	0	0	-0	0	200	-0	200	0	
78	2.841667	-345.937	1469.05	296.707	-187.138	1384.1	276.317	-237.085	1403.63	452.344	-289.788	1442.73	114.337	-175.573	1217.23	268.514	-441.479	1286.12	275.398	-267.531	989.231	391.481	-256.252	997.907	113.294	-464.168	1039.44	277.268	-461.321	1040.17	198.998	-459.751	1089.38	241.485	-252.561	1081.05	529.298	-0	0	0	-0	0	0	-0	0	0	-152.037	820.87	487.425	-151.261	836.068	444.297	-198.406	821.201	498.763	-304.919	1116.02	-13.1296	-0	0	0	-0	0	0	-0	0	0	-230.22	857.569	-3.08744	-268.309	866.442	-31.8796	-250.976	868.1420000000001	40.2658	-294.457	829.485	66.2831	-212.898	618.873	75.322	-186.982	715.2670000000001	104.511	-0	0	0	-0	0	0	-162.239	515.927	116.998	-259.81	472.982	66.0638	-418.902	254.828	69.5909	-309.9	338.679	136.016	-0	0	0	-0	0	0	-347.089	805.0650000000001	399.588	-326.238	594.452	359.231	-260.17	720.554	383.27	-0	0	0	-0	0	0	-242.674	513.0650000000001	288.428	-363.078	397.279	362.086	-367.499	189.053	338.676	-297.41	315.398	277.014	-0	0	0	-0	0	0	-450.996	61.2956	277.792	-151.261	56.8854	279.845	-227.923	33.9222	229.78	-240.95	27.9588	346.172	-350.666	27.0962	330.968	-287.57	119.753	285.985	-185.384	43.8429	236.899	-191.96	41.8854	328.357	-541.067	183.673	126.941	-277.891	42.242	108.21	-356.332	58.9577	165.5	-374.498	62.1943	52.5143	-470.074	105.989	66.2296	-367.57	159.059	110.677	-320.084	40.378	152.031	-323.81	42.0615	57.8024	-0	0	0	-462.745	1039.81	238.133	-200	0	0	-0	0	200	-0	200	0	
79	2.85	-337.936	1469.23	297.903	-179.467	1384.07	276.933	-228.466	1403.77	453.031	-282.508	1443.03	115.257	-167.987	1217.09	268.984	-433.866	1286.39	276.757	-259.965	989.24	392.201	-249.318	998.024	113.782	-456.805	1039.68	278.442	-454.075	1040.48	200.136	-452.424	1089.65	242.59	-241.831	1080.86	529.782	-0	0	0	-0	0	0	-0	0	0	-139.309	822.063	486.101	-139.451	836.705	442.612	-185.737	822.054	497.7	-302.614	1117.22	-13.4581	-0	0	0	-0	0	0	-0	0	0	-232.562	857.354	-6.42021	-271.15	867.497	-35.4198	-251.722	868.349	37.0246	-286.993	830.4589999999999	66.4622	-202.378	620.329	77.06910000000001	-177.716	717.049	106.514	-0	0	0	-0	0	0	-150.752	518.8390000000001	118.302	-246.861	473.336	67.3509	-398.634	249.789	70.35380000000001	-293.673	336.899	136.682	-0	0	0	-0	0	0	-339.644	805.062	399.658	-322.45	594.538	359.643	-254.609	719.92	383.547	-0	0	0	-0	0	0	-239.717	512.3440000000001	288.812	-360.811	397.343	362.471	-366.625	189.211	338.835	-295.826	315.064	277.259	-0	0	0	-0	0	0	-450.95	61.4497	277.821	-151.246	56.7479	279.821	-227.982	33.6214	229.583	-240.883	27.8317	345.999	-350.745	27.1337	330.893	-287.101	119.74	285.762	-185.32	43.7382	236.845	-191.919	41.8171	328.363	-517.79	173.651	127.518	-249.861	41.9425	109.728	-328.638	55.4901	165.294	-346.664	59.1953	52.3005	-444.803	99.17610000000001	66.1388	-343.681	155.678	111.47	-291.658	38.8865	152.703	-295.065	40.572	58.2689	-0	0	0	-455.44	1040.08	239.289	-200	0	0	-0	0	200	-0	200	0	
